<svg xmlns="http://www.w3.org/2000/svg" viewBox="-35.5 -12.5 71 25" width="284" height="100"><title>符文菱结全形</title><defs><radialGradient id="m-rivet" cx=".35" cy=".3" r=".8"><stop offset="0" stop-color="#fff2cc"/><stop offset="0.45" stop-color="#c8955a"/><stop offset="1" stop-color="#3f2710"/></radialGradient><filter id="grain" x="-10%" y="-10%" width="120%" height="120%" color-interpolation-filters="sRGB"><feTurbulence type="fractalNoise" baseFrequency="1.1" numOctaves="2" seed="5" result="t"/><feColorMatrix in="t" type="matrix" values=".6 0 0 0 .55 .6 0 0 0 .55 .6 0 0 0 .55 0 0 0 0 1" result="c"/><feComposite in="c" in2="SourceGraphic" operator="in" result="ci"/><feBlend in="SourceGraphic" in2="ci" mode="multiply"/></filter></defs><g filter="url(#grain)"><path fill="#120a04" d="M9.4 0Q15.8-6.6 22.4 0 15.8 6.6 9.4 0Z"/><path fill="#120a04" d="M21-2.3 34.6 0 21 2.3Z"/><path fill="#ecca90" d="M10.8 0Q15.8-5 21 0Z"/><path fill="#7f582e" d="M10.8 0Q15.8 5 21 0Z"/><path fill="#dcb477" d="M22-1.35 33.2 0H22Z"/><path fill="#6c4a27" d="M22 1.35 33.2 0H22Z"/><path stroke="#120a04" stroke-width=".8" d="M15.8-2.4V2.4"/><circle fill="#120a04" cx="22" cy="0" r="2.1"/><circle fill="url(#m-rivet)" cx="22" cy="0" r="1.4"/><g transform="scale(-1 1)"><path fill="#120a04" d="M9.4 0Q15.8-6.6 22.4 0 15.8 6.6 9.4 0Z"/><path fill="#120a04" d="M21-2.3 34.6 0 21 2.3Z"/><path fill="#ecca90" d="M10.8 0Q15.8-5 21 0Z"/><path fill="#7f582e" d="M10.8 0Q15.8 5 21 0Z"/><path fill="#dcb477" d="M22-1.35 33.2 0H22Z"/><path fill="#6c4a27" d="M22 1.35 33.2 0H22Z"/><path stroke="#120a04" stroke-width=".8" d="M15.8-2.4V2.4"/><circle fill="#120a04" cx="22" cy="0" r="2.1"/><circle fill="url(#m-rivet)" cx="22" cy="0" r="1.4"/></g><path fill="#120a04" d="M0-12.4 12.4 0 0 12.4-12.4 0Z"/><path fill="#f3d8a2" d="M-11 0 0-11V-6.6L-6.6 0Z"/><path fill="#c89a5c" d="M0-11 11 0H6.6L0-6.6Z"/><path fill="#5e3c1b" d="M11 0 0 11V6.6L6.6 0Z"/><path fill="#94673a" d="M0 11-11 0H-6.6L0 6.6Z"/><path fill="#140b04" d="M0-6.6 6.6 0 0 6.6-6.6 0Z"/><path fill="#fff0c8" d="M0-4.9-4.9 0H0Z"/><path fill="#e3a24a" d="M0-4.9 4.9 0H0Z"/><path fill="#7a3d0c" d="M4.9 0 0 4.9V0Z"/><path fill="#b36a22" d="M-4.9 0 0 4.9V0Z"/></g></svg>
